<?xml version="1.0" standalone="no"?><!DOCTYPE svg PUBLIC "-//W3C//DTD SVG 1.1//EN" "http://www.w3.org/Graphics/SVG/1.1/DTD/svg11.dtd"><svg t="1653528896652" class="icon" viewBox="0 0 1024 1024" version="1.1" xmlns="http://www.w3.org/2000/svg" p-id="2976" xmlns:xlink="http://www.w3.org/1999/xlink" width="200" height="200"><defs><style type="text/css"></style></defs><path d="M763.733333 238.933333c-34.133333-34.133333-87.466667-34.133333-121.6 0s-34.133333 87.466667 0 121.6 87.466667 34.133333 121.6 0c34.133333-34.133333 34.133333-89.6 0-121.6" fill="#f6ef37" p-id="2977"></path><path d="M1000.533333 61.866667c12.8 200.533333-76.8 416-236.8 576-12.8 12.8-25.6 23.466667-38.4 36.266666l10.666667 174.933334c2.133333 19.2-10.666667 36.266667-27.733333 42.666666l-232.533334 87.466667c-4.266667 2.133333-8.533333 2.133333-14.933333 2.133333-10.666667 0-19.2-4.266667-27.733333-10.666666-12.8-10.666667-17.066667-25.6-14.933334-40.533334L448 789.333333 234.666667 576l-140.8 27.733333H85.333333c-12.8 0-23.466667-6.4-32-14.933333-10.666667-12.8-12.8-27.733333-6.4-42.666667l87.466667-232.533333c6.4-17.066667 23.466667-27.733333 42.666667-27.733333l174.933333 10.666666c10.666667-12.8 23.466667-25.6 36.266667-38.4C548.266667 98.133333 763.733333 8.533333 964.266667 21.333333c19.2 2.133333 36.266667 19.2 36.266666 40.533334zM704 578.133333c132.266667-132.266667 211.2-307.2 213.333333-471.466666-164.266667 2.133333-339.2 81.066667-471.466666 213.333333-59.733333 59.733333-108.8 128-145.066667 200.533333l202.666667 202.666667c72.533333-36.266667 140.8-85.333333 200.533333-145.066667z m-185.6 294.4l130.133333-49.066666-4.266666-83.2c-36.266667 25.6-74.666667 46.933333-113.066667 66.133333l-12.8 66.133333z m-298.666667-379.733333c19.2-38.4 40.533333-76.8 66.133334-113.066667l-83.2-4.266666-49.066667 130.133333 66.133333-12.8z" fill="#f6ef37" p-id="2978"></path><path d="M258.133333 727.466667c21.333333-8.533333 32-34.133333 21.333334-55.466667-8.533333-21.333333-34.133333-32-55.466667-21.333333-23.466667 10.666667-44.8 25.6-64 44.8C106.666667 744.533333 85.333333 819.2 102.4 889.6c4.266667 17.066667 17.066667 29.866667 32 32 14.933333 4.266667 29.866667 4.266667 46.933333 4.266667 55.466667 0 108.8-21.333333 149.333334-61.866667 19.2-19.2 34.133333-40.533333 44.8-64 8.533333-21.333333 0-46.933333-21.333334-55.466667-21.333333-8.533333-46.933333 0-55.466666 21.333334-6.4 14.933333-14.933333 27.733333-25.6 38.4-23.466667 23.466667-55.466667 36.266667-87.466667 36.266666 0-32 12.8-64 36.266667-87.466666 8.533333-10.666667 21.333333-19.2 36.266666-25.6" fill="#f6ef37" p-id="2979"></path></svg>